<svg
	width="308"
	height="406"
	viewBox="0 0 308 406"
	fill="none"
	xmlns="http://www.w3.org/2000/svg"
>
	<path
		d="M307.28 160.83C307.13 166.08 306.79 171.06 306.25 175.83H228.16C228.16 175.83 228.17 175.78 228.18 175.75H203.61L181.98 209.5L128.7 126.35L96.99 175.83H1.75C1.21 171.06 0.870001 166.08 0.720001 160.83H88.79L128.7 98.54L181.98 181.7L195.41 160.75H219.86C219.86 160.75 219.87 160.8 219.87 160.83H307.28Z"
		fill="white"
	/>
	<path
		d="M299.36 160.75V160.83H219.87C219.87 160.83 219.86 160.78 219.86 160.75H299.36Z"
		fill="white"
	/>
	<path
		d="M299.36 160.75V160.83H219.87C219.87 160.83 219.86 160.78 219.86 160.75H299.36Z"
		fill="white"
	/>
	<path
		d="M301.54 190.83C301.54 190.83 301.55 190.88 301.56 190.91H236.44C222.34 222.4 190.73 244.33 154 244.33C117.27 244.33 85.65 222.4 71.55 190.91H4.30999C8.44999 208.78 16.36 224.06 29.38 240.3L154 384.09L278.62 240.3C291.65 224.03 299.57 208.74 303.71 190.83H301.54ZM301.54 160.75C301.54 160.75 301.55 160.8 301.56 160.83H307.28C307.28 160.83 307.29 160.77 307.29 160.75H301.54ZM244.05 160.83H299.36V160.75H244.05V160.83ZM154 0.640015C72.07 0.640015 5.13999 64.88 0.839993 145.75H64.07C68.24 99.75 106.91 63.71 154 63.71C201.09 63.71 239.75 99.75 243.92 145.75H307.16C302.86 64.88 235.93 0.640015 154 0.640015ZM0.709991 160.75C0.709991 160.75 0.719992 160.8 0.719992 160.83H1.83999C1.83999 160.83 1.84999 160.78 1.85999 160.75H0.709991Z"
		fill="white"
	/>
	<path
		d="M183.17 365.7L179.45 370C193.12 373.25 201.51 378.86 201.51 384.09C201.51 392.06 182 400.94 154.01 400.94C126.02 400.94 106.51 392.06 106.51 384.09C106.51 378.86 114.9 373.25 128.56 370L124.84 365.71C110.58 369.53 101.51 376.19 101.51 384.09C101.51 396.55 124.08 405.94 154.01 405.94C183.94 405.94 206.51 396.55 206.51 384.09C206.51 376.19 197.44 369.53 183.17 365.7Z"
		fill="white"
	/>
</svg>